<svg xmlns="http://www.w3.org/2000/svg" style="display: none;">
  <symbol id="icon-logo" viewBox="0 0 136 16">
    <path fill="var(--text)" d="M135.393 7.188h-3.608a1 1 0 0 0-.235-.576 1.3 1.3 0 0 0-.532-.369 1.8 1.8 0 0 0-.711-.135q-.504 0-.866.185-.363.184-.355.525-.007.241.206.448.22.206.845.32l2.216.397q1.675.306 2.493 1.03.823.717.831 1.925-.008 1.163-.696 2.024-.683.852-1.868 1.32-1.18.463-2.692.462-2.5 0-3.913-1.022-1.407-1.023-1.57-2.7h3.892q.079.52.511.803.44.277 1.108.277.54 0 .888-.184.356-.185.362-.526-.007-.312-.312-.497-.299-.185-.938-.298l-1.931-.341q-1.67-.292-2.5-1.108t-.824-2.102q-.007-1.137.596-1.925.61-.795 1.74-1.208 1.137-.419 2.692-.419 2.365 0 3.729.98 1.37.98 1.442 2.714M116.415 11.96l.028-4.659h.512l2.642-3.665H124l-4.432 5.71h-1.108zm-3.523 2.585V0h3.921v14.546zm6.733 0-2.5-4.318 2.557-2.784 4.432 7.103zM105.619 14.744q-1.776 0-3.04-.703a4.84 4.84 0 0 1-1.939-1.974q-.675-1.272-.674-2.948 0-1.675.674-2.94a4.8 4.8 0 0 1 1.939-1.974q1.264-.71 3.04-.71 1.605 0 2.777.582 1.179.575 1.825 1.633.647 1.051.654 2.472h-3.637q-.078-.86-.497-1.307-.412-.454-1.065-.454-.512 0-.895.298-.384.291-.597.888-.213.589-.213 1.484t.213 1.492q.213.588.597.887.383.291.895.291.433 0 .767-.198.333-.207.54-.597.213-.398.255-.966h3.637q-.022 1.442-.661 2.514-.64 1.066-1.811 1.648-1.165.582-2.784.582M94.049 9.773V3.636h3.92v10.91h-3.721v-2.074h-.114a3.1 3.1 0 0 1-1.243 1.633q-.888.582-2.11.583-1.144 0-2.002-.526a3.6 3.6 0 0 1-1.328-1.449q-.469-.922-.476-2.116v-6.96h3.92v6.136q.007.81.412 1.271.412.462 1.15.462.492 0 .846-.206.363-.213.554-.597.2-.39.192-.93M77.903 14.546V3.636h3.807V5.71h.113q.3-1.15.945-1.683a2.34 2.34 0 0 1 1.527-.533q.255 0 .504.043.255.036.49.107v3.345a3.5 3.5 0 0 0-.717-.15 7 7 0 0 0-.731-.05q-.576 0-1.037.264-.455.255-.718.724-.263.462-.263 1.087v5.682zM64.45 3.182V0h12.643v3.182h-4.375v11.364h-3.892V3.182z"/>
    <path fill="#101828" d="M62.508 0v14.546h-3.92V0zM51.247 14.744q-1.748 0-3.012-.667a4.7 4.7 0 0 1-1.939-1.932q-.675-1.264-.674-3.026 0-1.69.681-2.954a4.87 4.87 0 0 1 1.925-1.967q1.244-.704 2.933-.704 1.236 0 2.238.384a4.7 4.7 0 0 1 1.711 1.115q.71.724 1.094 1.761t.384 2.337v.91h-9.745V7.84h6.137a1.5 1.5 0 0 0-.242-.824 1.54 1.54 0 0 0-.618-.561 1.8 1.8 0 0 0-.873-.206q-.477 0-.874.206a1.65 1.65 0 0 0-.64.554q-.233.356-.248.831v2.33q0 .525.22.937t.633.646q.411.235.994.235.405 0 .739-.114.34-.114.582-.327.241-.22.355-.525h3.58a4.1 4.1 0 0 1-.874 1.974q-.69.831-1.825 1.293-1.13.454-2.642.454M44.836 3.636l-3.664 10.91h-4.546l-3.665-10.91h4.12l1.761 7.216h.114l1.761-7.216zM25.056 14.716q-1.044 0-1.847-.34a2.78 2.78 0 0 1-1.25-1.052q-.454-.703-.454-1.79 0-.894.305-1.527a2.75 2.75 0 0 1 .853-1.044q.546-.405 1.27-.618a7.7 7.7 0 0 1 1.578-.277q.915-.07 1.47-.17.561-.107.81-.291a.6.6 0 0 0 .248-.505v-.028q0-.426-.327-.653t-.838-.228q-.561 0-.916.249-.348.241-.419.746h-3.608a3.7 3.7 0 0 1 .632-1.833q.568-.844 1.655-1.35 1.086-.51 2.713-.51 1.172 0 2.102.276.93.27 1.584.76.654.483.994 1.137.348.646.348 1.406v7.472h-3.664V13.01h-.086a3.15 3.15 0 0 1-.795.988q-.462.375-1.058.547-.59.17-1.3.17m1.278-2.472q.448 0 .838-.184.398-.184.647-.533.248-.348.248-.845v-.91a5.059 5.059 0 0 1-.703.227 9.72 9.72 0 0 1-.86.17 2.2 2.2 0 0 0-.745.236q-.284.156-.426.39a1 1 0 0 0-.135.512q0 .455.32.696t.816.241M13.452 14.546V3.636h3.807V5.71h.114q.297-1.15.944-1.683a2.34 2.34 0 0 1 1.527-.533q.256 0 .505.043.255.036.49.107v3.345a3.5 3.5 0 0 0-.718-.15 7 7 0 0 0-.731-.05q-.576 0-1.037.264-.454.255-.718.724-.262.462-.262 1.087v5.682zM0 3.182V0h12.642v3.182H8.267v11.364H4.375V3.182z"/>
  </symbol>
  <symbol id="icon-map" viewBox="0 0 20 20">
    <path 
    fill-rule="evenodd" 
    clip-rule="evenodd" 
    d="M19.7712 0.141029C19.8428 0.199699 19.9005 0.273527 19.94 0.357185C19.9796 0.440842 20.0001 0.53224 20 0.624779V18.1248C19.9999 18.2692 19.9498 18.4092 19.8582 18.5208C19.7666 18.6325 19.6391 18.709 19.4975 18.7373L13.2475 19.9873C13.1666 20.0034 13.0834 20.0034 13.0025 19.9873L6.875 18.7623L0.7475 19.9873C0.656861 20.0054 0.563332 20.0032 0.473651 19.9808C0.38397 19.9584 0.30037 19.9164 0.228874 19.8578C0.157378 19.7993 0.0997667 19.7255 0.0601897 19.642C0.0206127 19.5585 5.58159e-05 19.4672 0 19.3748L0 1.87478C8.72276e-05 1.73035 0.0501951 1.5904 0.141804 1.47874C0.233413 1.36708 0.360869 1.29059 0.5025 1.26228L6.7525 0.0122789C6.83337 -0.00388454 6.91663 -0.00388454 6.9975 0.0122789L13.125 1.23728L19.2525 0.0122789C19.3431 -0.00595135 19.4366 -0.00385945 19.5263 0.0184039C19.616 0.0406672 19.6997 0.0825478 19.7712 0.141029ZM12.5 2.38728L7.5 1.38728V17.6123L12.5 18.6123V2.38728ZM13.75 18.6123L18.75 17.6123V1.38728L13.75 2.38728V18.6123ZM6.25 17.6123V1.38728L1.25 2.38728V18.6123L6.25 17.6123Z" 
    fill="currentColor" 
  />
  </symbol>
  <symbol id="icon-alcove" viewBox="0 0 20 20">
    <path fill="#000" d="M17.488 8.624a.6.6 0 0 0-.04-.12L15.973 5.06c-.34-.796-1.168-1.31-2.11-1.31H6.137c-.94 0-1.77.514-2.11 1.31L2.55 8.504a.6.6 0 0 0-.05.246v6.875a.625.625 0 0 0 .625.625h1.25A.625.625 0 0 0 5 15.625V15h10v.625a.625.625 0 0 0 .625.625h1.25a.624.624 0 0 0 .625-.625V8.75a.6.6 0 0 0-.012-.126M5.625 12.5a1.25 1.25 0 1 1 0-2.5 1.25 1.25 0 0 1 0 2.5m8.75 0a1.25 1.25 0 1 1 0-2.5 1.25 1.25 0 0 1 0 2.5M4.073 8.125l1.102-2.572c.142-.33.528-.553.962-.553h7.726c.434 0 .82.222.962.553l1.102 2.572z"/>
  </symbol>
  <symbol id="icon-automatic" viewBox="0 0 20 20">
    <path fill="#101828" fill-rule="evenodd" d="M7.5 4.375A1.875 1.875 0 0 1 9.375 2.5h1.25A1.875 1.875 0 0 1 12.5 4.375v1.25A1.875 1.875 0 0 1 10.625 7.5v1.25H17.5a.625.625 0 0 1 .625.625v1.25a.624.624 0 1 1-1.25 0V10h-6.25v.625a.624.624 0 1 1-1.25 0V10h-6.25v.625a.625.625 0 1 1-1.25 0v-1.25A.625.625 0 0 1 2.5 8.75h6.875V7.5A1.875 1.875 0 0 1 7.5 5.625zm3.125 1.875a.625.625 0 0 0 .625-.625v-1.25a.625.625 0 0 0-.625-.625h-1.25a.625.625 0 0 0-.625.625v1.25a.625.625 0 0 0 .625.625zM0 14.375A1.875 1.875 0 0 1 1.875 12.5h1.25A1.875 1.875 0 0 1 5 14.375v1.25A1.875 1.875 0 0 1 3.125 17.5h-1.25A1.875 1.875 0 0 1 0 15.625zm1.875-.625a.625.625 0 0 0-.625.625v1.25a.625.625 0 0 0 .625.625h1.25a.625.625 0 0 0 .625-.625v-1.25a.625.625 0 0 0-.625-.625zm5.625.625A1.875 1.875 0 0 1 9.375 12.5h1.25a1.875 1.875 0 0 1 1.875 1.875v1.25a1.875 1.875 0 0 1-1.875 1.875h-1.25A1.875 1.875 0 0 1 7.5 15.625zm1.875-.625a.625.625 0 0 0-.625.625v1.25a.625.625 0 0 0 .625.625h1.25a.624.624 0 0 0 .625-.625v-1.25a.624.624 0 0 0-.625-.625zm5.625.625a1.875 1.875 0 0 1 1.875-1.875h1.25A1.875 1.875 0 0 1 20 14.375v1.25a1.875 1.875 0 0 1-1.875 1.875h-1.25A1.875 1.875 0 0 1 15 15.625zm1.875-.625a.624.624 0 0 0-.625.625v1.25a.624.624 0 0 0 .625.625h1.25a.624.624 0 0 0 .625-.625v-1.25a.624.624 0 0 0-.625-.625z" clip-rule="evenodd"/>
  </symbol>
  <symbol id="icon-petrol" viewBox="0 0 20 20">
    <g fill="#101828" clip-path="url(#a)">
      <path d="M3.75 3.125a.625.625 0 0 1 .625-.625h6.25a.625.625 0 0 1 .625.625v6.25a.625.625 0 0 1-.625.625h-6.25a.625.625 0 0 1-.625-.625z"/>
      <path d="M1.25 2.5A2.5 2.5 0 0 1 3.75 0h7.5a2.5 2.5 0 0 1 2.5 2.5v10a2.5 2.5 0 0 1 2.5 2.5v.625a.624.624 0 1 0 1.25 0V10h-.625a.625.625 0 0 1-.625-.625V5.469a.625.625 0 0 1 .625-.625h1.869c-.014-.595-.067-1.118-.252-1.528A1.2 1.2 0 0 0 18 2.744c-.23-.138-.58-.244-1.125-.244a.625.625 0 1 1 0-1.25q1.057-.003 1.765.42c.479.285.793.689.992 1.134.37.819.368 1.831.368 2.601v3.969a.625.625 0 0 1-.625.626h-.625v5.625a1.875 1.875 0 1 1-3.75 0V15a1.25 1.25 0 0 0-1.25-1.25v5h.625a.624.624 0 1 1 0 1.25H.625a.625.625 0 1 1 0-1.25h.625zm11.25 0a1.25 1.25 0 0 0-1.25-1.25h-7.5A1.25 1.25 0 0 0 2.5 2.5v16.25h10z"/>
    </g>
    <defs>
      <clipPath id="a">
        <path fill="#fff" d="M0 0h20v20H0z"/>
      </clipPath>
    </defs>
  </symbol>
  <symbol id="icon-rating-default" viewBox="0 0 16 16">
    <path fill="#ffc531" d="M7.558.838a.5.5 0 0 1 .884 0l1.889 3.579a.5.5 0 0 0 .356.26l3.988.69a.5.5 0 0 1 .273.84l-2.82 2.902a.5.5 0 0 0-.137.42l.576 4.005a.5.5 0 0 1-.715.52L8.22 12.268a.5.5 0 0 0-.442 0l-3.63 1.786a.5.5 0 0 1-.716-.52l.576-4.005a.5.5 0 0 0-.137-.42l-2.82-2.902a.5.5 0 0 1 .273-.84l3.988-.69a.5.5 0 0 0 .357-.26z"/>
  </symbol>
  <symbol id="icon-rating" viewBox="0 0 16 16">
    <path fill="#dadde1" d="M7.558.838a.5.5 0 0 1 .884 0l1.889 3.579a.5.5 0 0 0 .356.26l3.988.69a.5.5 0 0 1 .273.84l-2.82 2.902a.5.5 0 0 0-.137.42l.576 4.005a.5.5 0 0 1-.715.52L8.22 12.268a.5.5 0 0 0-.442 0l-3.63 1.786a.5.5 0 0 1-.716-.52l.576-4.005a.5.5 0 0 0-.137-.42l-2.82-2.902a.5.5 0 0 1 .273-.84l3.988-.69a.5.5 0 0 0 .357-.26z"/>
  </symbol>
</svg>